<svg xmlns="http://www.w3.org/2000/svg" width="163.323" height="25.92" viewBox="0 0 163.323 25.92"><path d="M16.038-2.268a2.036,2.036,0,0,1,.216.864A1.471,1.471,0,0,1,15.62-.122a2.251,2.251,0,0,1-1.31.446,2.629,2.629,0,0,1-1.5-.392,3.278,3.278,0,0,1-.986-1.08,14.063,14.063,0,0,1-.891-1.931l-1-2.592a9.563,9.563,0,0,0-.661-1.4,2.567,2.567,0,0,0-.891-.864,2.982,2.982,0,0,0-1.553-.351l-1.4-.027v4.941A8.51,8.51,0,0,0,5.859-.324a2.488,2.488,0,0,1-1.7.675A1.824,1.824,0,0,1,2.9-.068,1.454,1.454,0,0,1,2.43-1.215V-15.228a13.9,13.9,0,0,0-.108-1.634,7.206,7.206,0,0,0-.351-1.579,11.22,11.22,0,0,1,4.563-.7,11.487,11.487,0,0,1,5.845,1.174,4.128,4.128,0,0,1,1.931,3.821,4.989,4.989,0,0,1-1.134,3.321,5.844,5.844,0,0,1-3.1,1.863,3.22,3.22,0,0,1,1.539.851,6.592,6.592,0,0,1,1.107,1.607l1.215,2.835a4.64,4.64,0,0,0,.688,1.283,1.059,1.059,0,0,0,.715.418A.9.9,0,0,0,16.038-2.268ZM5.427-9.45q.459.027,1.539.027a3.931,3.931,0,0,0,2.984-1.3,4.683,4.683,0,0,0,1.093-3.213q0-4.077-4.293-4.077-1,0-1.323.027ZM29-3.726a.678.678,0,0,1,.432.675,2.128,2.128,0,0,1-.189.783A3.718,3.718,0,0,1,27.418-.324a6.791,6.791,0,0,1-3.146.675,6.315,6.315,0,0,1-4.846-1.89,7.569,7.569,0,0,1-1.769-5.373,7.753,7.753,0,0,1,1.728-5.36A6.286,6.286,0,0,1,24.327-14.2a6.414,6.414,0,0,1,3.807,1.04,3.415,3.415,0,0,1,1.458,2.957,3.458,3.458,0,0,1-1.607,3.064,7.8,7.8,0,0,1-4.361,1.067,25.446,25.446,0,0,1-2.781-.135,5.573,5.573,0,0,0,1.269,3.591,3.977,3.977,0,0,0,2.943,1.08,4.955,4.955,0,0,0,2.5-.594A3.206,3.206,0,0,0,29-3.726ZM24.219-13.1a2.79,2.79,0,0,0-2.5,1.5,8.277,8.277,0,0,0-.9,4.253,12.475,12.475,0,0,0,1.431.081,5.557,5.557,0,0,0,3-.729,2.905,2.905,0,0,0,1.161-2.673,2.414,2.414,0,0,0-.621-1.877A2.266,2.266,0,0,0,24.219-13.1ZM43.875-1.377q0,7.533-6.723,7.533a8.113,8.113,0,0,1-3.51-.662,2.268,2.268,0,0,1-1.377-2.2,1.756,1.756,0,0,1,.581-1.364,2.145,2.145,0,0,1,1.5-.526,1.655,1.655,0,0,1,1.377.513,1.486,1.486,0,0,0-.554.608,1.641,1.641,0,0,0-.175.716,1.724,1.724,0,0,0,.621,1.4,2.418,2.418,0,0,0,1.593.513,3.182,3.182,0,0,0,2.916-1.62,9.04,9.04,0,0,0,.972-4.617q0-.513.162-2.079A5.007,5.007,0,0,1,39.582-.648,4.587,4.587,0,0,1,36.72.216a3.762,3.762,0,0,1-3.146-1.283,6.946,6.946,0,0,1-1.013-4.253l-.027-5a9.627,9.627,0,0,0-.432-3.24,2.546,2.546,0,0,1,1.7-.648,1.784,1.784,0,0,1,1.229.418,1.454,1.454,0,0,1,.472,1.148v6.885a9.037,9.037,0,0,0,.472,3.416,1.677,1.677,0,0,0,1.66,1.066,2.74,2.74,0,0,0,2.389-1.58,9.4,9.4,0,0,0,.931-4.685q0-3.105-.081-4.131a6.622,6.622,0,0,0-.432-1.917,2.681,2.681,0,0,1,1.7-.621,1.7,1.7,0,0,1,1.215.459,1.627,1.627,0,0,1,.486,1.242Zm15.5-2.16a9.284,9.284,0,0,0,.486,3.213,2.425,2.425,0,0,1-1.7.675,1.836,1.836,0,0,1-1.242-.419,1.435,1.435,0,0,1-.486-1.148V-8.262A8.471,8.471,0,0,0,55.9-11.57a1.833,1.833,0,0,0-1.822-1.066,2.378,2.378,0,0,0-1.633.675,4.751,4.751,0,0,0-1.2,2.066,11.21,11.21,0,0,0-.459,3.47q0,3.186.081,4.212A6.622,6.622,0,0,0,51.3-.3a2.794,2.794,0,0,1-.715.446,2.289,2.289,0,0,1-.958.2,1.773,1.773,0,0,1-1.269-.459,1.627,1.627,0,0,1-.486-1.242v-9.207a2.828,2.828,0,0,0-.189-1.08.558.558,0,0,0-.54-.324.712.712,0,0,0-.7.378,1.807,1.807,0,0,1-.351-1.026,1.45,1.45,0,0,1,.513-1.148,2.112,2.112,0,0,1,1.431-.446,2.164,2.164,0,0,1,1.8.8,3.736,3.736,0,0,1,.635,2.363v.135a4.821,4.821,0,0,1,1.715-2.444,4.726,4.726,0,0,1,2.848-.851,3.889,3.889,0,0,1,3.28,1.377,6.684,6.684,0,0,1,1.067,4.131ZM75.789-2.4a1.62,1.62,0,0,1,.324,1,1.461,1.461,0,0,1-.621,1.188A2.508,2.508,0,0,1,73.9.27a2.336,2.336,0,0,1-2-.9,5.084,5.084,0,0,1-.7-2.929A7.2,7.2,0,0,1,68.985-.756,5.214,5.214,0,0,1,65.772.3a3.663,3.663,0,0,1-2.525-.851,2.93,2.93,0,0,1-.958-2.309,3.533,3.533,0,0,1,1.3-2.808,8.611,8.611,0,0,1,3.321-1.674,13.913,13.913,0,0,1,4.131-.513v-.675a7.079,7.079,0,0,0-.648-3.456,2.3,2.3,0,0,0-2.16-1.107,2.657,2.657,0,0,0-1.661.486,1.881,1.881,0,0,0-.634,1.593,2.8,2.8,0,0,0,.243,1.161,1.614,1.614,0,0,0,.81.81,1.648,1.648,0,0,1-.715.445,2.926,2.926,0,0,1-.932.149A2.26,2.26,0,0,1,63.6-9.167a2.472,2.472,0,0,1-.661-1.741,2.683,2.683,0,0,1,1.458-2.444,8.006,8.006,0,0,1,4.023-.851,5.773,5.773,0,0,1,4.28,1.391A6.16,6.16,0,0,1,74.061-8.37V-3.4q0,1.431.918,1.431a1.043,1.043,0,0,0,.445-.108A.847.847,0,0,0,75.789-2.4Zm-8.667.729a3.008,3.008,0,0,0,1.823-.715,5.655,5.655,0,0,0,1.552-1.9,5.4,5.4,0,0,0,.621-2.538,9.191,9.191,0,0,0-1.917.095,6.252,6.252,0,0,0-1.674.472,3.574,3.574,0,0,0-1.471,1.094,2.57,2.57,0,0,0-.527,1.607,2.24,2.24,0,0,0,.392,1.35A1.385,1.385,0,0,0,67.122-1.674ZM98.2-2.268a2.036,2.036,0,0,1,.216.864,1.471,1.471,0,0,1-.635,1.283,2.251,2.251,0,0,1-1.31.446,2.629,2.629,0,0,1-1.5-.392,3.278,3.278,0,0,1-.986-1.08A14.063,14.063,0,0,1,93.1-3.078l-1-2.592a9.563,9.563,0,0,0-.661-1.4,2.567,2.567,0,0,0-.891-.864,2.982,2.982,0,0,0-1.552-.351l-1.4-.027v4.941A8.51,8.51,0,0,0,88.02-.324a2.488,2.488,0,0,1-1.7.675,1.824,1.824,0,0,1-1.255-.419,1.454,1.454,0,0,1-.473-1.148V-15.228a13.9,13.9,0,0,0-.108-1.634,7.206,7.206,0,0,0-.351-1.579,11.22,11.22,0,0,1,4.563-.7,11.487,11.487,0,0,1,5.845,1.174,4.128,4.128,0,0,1,1.93,3.821,4.989,4.989,0,0,1-1.134,3.321,5.844,5.844,0,0,1-3.105,1.863,3.22,3.22,0,0,1,1.539.851,6.592,6.592,0,0,1,1.107,1.607l1.215,2.835a4.64,4.64,0,0,0,.688,1.283,1.059,1.059,0,0,0,.715.418A.9.9,0,0,0,98.2-2.268ZM87.588-9.45q.459.027,1.539.027a3.931,3.931,0,0,0,2.983-1.3A4.683,4.683,0,0,0,93.2-13.932q0-4.077-4.293-4.077-1,0-1.323.027ZM113.319-2.4a1.62,1.62,0,0,1,.324,1,1.461,1.461,0,0,1-.621,1.188,2.508,2.508,0,0,1-1.593.486,2.336,2.336,0,0,1-2-.9,5.084,5.084,0,0,1-.7-2.929,7.2,7.2,0,0,1-2.214,2.808A5.214,5.214,0,0,1,103.3.3a3.663,3.663,0,0,1-2.525-.851,2.93,2.93,0,0,1-.958-2.309,3.533,3.533,0,0,1,1.3-2.808,8.611,8.611,0,0,1,3.321-1.674,13.913,13.913,0,0,1,4.131-.513v-.675a7.079,7.079,0,0,0-.648-3.456,2.3,2.3,0,0,0-2.16-1.107,2.657,2.657,0,0,0-1.66.486,1.881,1.881,0,0,0-.634,1.593,2.8,2.8,0,0,0,.243,1.161,1.614,1.614,0,0,0,.81.81,1.648,1.648,0,0,1-.715.445,2.926,2.926,0,0,1-.931.149,2.26,2.26,0,0,1-1.742-.715,2.472,2.472,0,0,1-.662-1.741,2.683,2.683,0,0,1,1.458-2.444,8.006,8.006,0,0,1,4.023-.851,5.773,5.773,0,0,1,4.28,1.391,6.16,6.16,0,0,1,1.363,4.442V-3.4q0,1.431.918,1.431a1.043,1.043,0,0,0,.446-.108A.847.847,0,0,0,113.319-2.4Zm-8.667.729a3.008,3.008,0,0,0,1.823-.715,5.655,5.655,0,0,0,1.552-1.9,5.4,5.4,0,0,0,.621-2.538,9.191,9.191,0,0,0-1.917.095,6.252,6.252,0,0,0-1.674.472,3.574,3.574,0,0,0-1.471,1.094,2.57,2.57,0,0,0-.527,1.607,2.24,2.24,0,0,0,.392,1.35A1.385,1.385,0,0,0,104.652-1.674Zm23.031-1.863a9.284,9.284,0,0,0,.486,3.213,2.425,2.425,0,0,1-1.7.675,1.836,1.836,0,0,1-1.242-.419,1.435,1.435,0,0,1-.486-1.148V-8.262a8.471,8.471,0,0,0-.526-3.307,1.833,1.833,0,0,0-1.823-1.066,2.378,2.378,0,0,0-1.633.675,4.751,4.751,0,0,0-1.2,2.066,11.21,11.21,0,0,0-.459,3.47q0,3.186.081,4.212A6.622,6.622,0,0,0,119.61-.3a2.794,2.794,0,0,1-.715.446,2.289,2.289,0,0,1-.958.2,1.773,1.773,0,0,1-1.269-.459,1.627,1.627,0,0,1-.486-1.242v-9.207a2.828,2.828,0,0,0-.189-1.08.558.558,0,0,0-.54-.324.712.712,0,0,0-.7.378,1.807,1.807,0,0,1-.351-1.026,1.45,1.45,0,0,1,.513-1.148,2.112,2.112,0,0,1,1.431-.446,2.164,2.164,0,0,1,1.8.8,3.736,3.736,0,0,1,.634,2.363v.135a4.821,4.821,0,0,1,1.715-2.444,4.726,4.726,0,0,1,2.848-.851,3.889,3.889,0,0,1,3.281,1.377,6.684,6.684,0,0,1,1.066,4.131Zm7.911,9.693a7.036,7.036,0,0,1-3.51-.783A2.56,2.56,0,0,1,130.707,3a2.072,2.072,0,0,1,.594-1.553A2.109,2.109,0,0,1,132.84.864a1.655,1.655,0,0,1,1.377.513,2.111,2.111,0,0,0-.783,1.755,1.906,1.906,0,0,0,.594,1.485,2.359,2.359,0,0,0,1.647.54,3.249,3.249,0,0,0,2.956-1.593,8.6,8.6,0,0,0,.986-4.509V-2.889a4.068,4.068,0,0,1-1.553,2.16,4.61,4.61,0,0,1-2.686.756,4.2,4.2,0,0,1-3.523-1.62Q130.6-3.213,130.6-6.7a9.144,9.144,0,0,1,1.485-5.413Q133.569-14.2,137-14.2a10.414,10.414,0,0,1,3.118.459,6.3,6.3,0,0,1,2.417,1.323V-1.215Q142.533,6.156,135.594,6.156Zm.648-7.587a2.685,2.685,0,0,0,2.5-1.472A7.912,7.912,0,0,0,139.59-6.7l.027-5.616a2.687,2.687,0,0,0-1.08-.58,4.955,4.955,0,0,0-1.431-.2,2.638,2.638,0,0,0-2.66,1.741,13.416,13.416,0,0,0-.715,4.928,9.167,9.167,0,0,0,.581,3.861A2,2,0,0,0,136.242-1.431Zm20.331-2.3a.678.678,0,0,1,.432.675,2.128,2.128,0,0,1-.189.783,3.718,3.718,0,0,1-1.822,1.944,6.791,6.791,0,0,1-3.146.675A6.315,6.315,0,0,1,147-1.539a7.569,7.569,0,0,1-1.769-5.373,7.753,7.753,0,0,1,1.728-5.36A6.286,6.286,0,0,1,151.9-14.2a6.414,6.414,0,0,1,3.807,1.04,3.415,3.415,0,0,1,1.458,2.957,3.458,3.458,0,0,1-1.606,3.064A7.8,7.8,0,0,1,151.2-6.075a25.446,25.446,0,0,1-2.781-.135,5.573,5.573,0,0,0,1.269,3.591,3.977,3.977,0,0,0,2.943,1.08,4.955,4.955,0,0,0,2.5-.594A3.206,3.206,0,0,0,156.573-3.726ZM151.794-13.1a2.79,2.79,0,0,0-2.5,1.5,8.277,8.277,0,0,0-.9,4.253,12.475,12.475,0,0,0,1.431.081,5.557,5.557,0,0,0,3-.729,2.905,2.905,0,0,0,1.161-2.673,2.414,2.414,0,0,0-.621-1.877A2.266,2.266,0,0,0,151.794-13.1ZM163.107.27a2.73,2.73,0,0,1-2.2-.9,3.778,3.778,0,0,1-.77-2.525V-18.2a1.454,1.454,0,0,1,.473-1.148,1.784,1.784,0,0,1,1.229-.419,2.273,2.273,0,0,1,1.674.675A10.688,10.688,0,0,0,163.161-17q-.081,1.12-.081,3.172V-3.4q0,1.431.972,1.431a1.345,1.345,0,0,0,.527-.108.684.684,0,0,0,.365-.324,1.538,1.538,0,0,1,.351,1,1.432,1.432,0,0,1-.648,1.2A2.541,2.541,0,0,1,163.107.27Z" transform="translate(-1.971 19.764)" fill="#f1f6fc"/></svg>