<svg xmlns="http://www.w3.org/2000/svg" width="111" height="111" viewBox="0 0 111 111"><g transform="translate(-15.829)"><path d="M55.5,0A55.5,55.5,0,1,1,0,55.5,55.5,55.5,0,0,1,55.5,0Z" transform="translate(15.829)" fill="#acc4d4" opacity="0.1"/><path d="M34.408,42.5C34.374,42.564,34.339,42.619,34.408,42.5Zm28.4-9.917A14.951,14.951,0,0,0,56.2,34.117a14.04,14.04,0,0,1-1.482-3.431,9.159,9.159,0,0,1-.125-2.884,24.288,24.288,0,0,1,.866-3.1c-.011-.125-.16-.752-1.63-.764s-2.736.285-2.883.673a14,14,0,0,0-.6,2.177c-.262,1.334-2.94,6.1-4.456,8.584a8.851,8.851,0,0,1-1.015-2.508,9.159,9.159,0,0,1-.125-2.884,24.286,24.286,0,0,1,.866-3.1c-.011-.125-.16-.752-1.629-.764s-2.736.285-2.884.673-.308,1.3-.6,2.177-3.863,8.812-4.8,10.875c-.479,1.049-.889,1.892-1.186,2.462-.046.091-.08.148-.1.194.034-.057.057-.114.057-.091-.251.49-.4.764-.4.764v.011c-.194.365-.41.7-.513.7a4.729,4.729,0,0,1,.034-2.268c.536-2.759,1.8-7.045,1.79-7.193-.011-.08.239-.821-.832-1.22a1.342,1.342,0,0,0-1.5.251c-.091,0-.16.228-.16.228s1.151-4.833-2.21-4.833c-2.1,0-5.016,2.3-6.45,4.389-.9.49-2.85,1.55-4.9,2.679-.787.433-1.6.878-2.36,1.3-.057-.057-.1-.114-.16-.171C12.717,32.681,5.184,29.6,5.5,23.755c.114-2.132.855-7.729,14.485-14.523C31.16,3.669,40.091,5.2,41.629,8.594c2.211,4.845-4.775,13.862-16.376,15.161-4.422.49-6.746-1.22-7.328-1.858-.6-.673-.7-.707-.923-.581-.376.205-.137.8,0,1.151A6.869,6.869,0,0,0,21.2,25.761c2.132.7,7.316,1.083,13.585-1.345C41.823,21.7,47.3,14.145,45.7,7.819,44.061,1.389,33.4-.72,23.32,2.86c-6.006,2.132-12.5,5.483-17.174,9.849C.595,17.907-.293,22.433.072,24.325c1.3,6.714,10.552,11.092,14.256,14.329-.182.1-.353.194-.513.285-1.857.923-8.912,4.617-10.678,8.515-1.995,4.423.331,7.592,1.857,8.025,4.764,1.322,9.642-1.06,12.262-4.97s2.3-9.017,1.094-11.342c-.011-.034-.034-.057-.046-.091.479-.285.969-.57,1.459-.855.945-.559,1.868-1.072,2.678-1.516a17.706,17.706,0,0,0-.958,4.856c-.205,2.508.832,5.757,2.177,7.033a2.392,2.392,0,0,0,1.754.57c1.573,0,2.28-1.3,3.065-2.85.969-1.892,1.824-4.092,1.824-4.092s-1.072,5.95,1.858,5.95c1.07,0,2.142-1.379,2.622-2.086V46.1s.023-.046.08-.137c.114-.171.171-.274.171-.274v-.034c.433-.741,1.379-2.439,2.8-5.244,1.847-3.625,3.612-8.151,3.612-8.151a22.941,22.941,0,0,0,.707,2.941,27.535,27.535,0,0,0,1.528,3.42c-.433.593-.7.935-.7.935a.035.035,0,0,0,.011.023c-.342.456-.73.946-1.129,1.425a40.236,40.236,0,0,0-3.42,4.286,1.165,1.165,0,0,0,.319,1.562,2.771,2.771,0,0,0,1.789.285,7.9,7.9,0,0,0,2.679-.616,9.37,9.37,0,0,0,2.3-1.208,5.146,5.146,0,0,0,2.211-4.537,9.441,9.441,0,0,0-.832-3.215c.125-.182.262-.376.388-.57a60.6,60.6,0,0,0,4-6.91,22.941,22.941,0,0,0,.707,2.941,20.108,20.108,0,0,0,1.3,2.93,12.531,12.531,0,0,0-3.886,5.027c-.844,2.428-.182,3.522,1.06,3.773a3.825,3.825,0,0,0,1.949-.4A9.058,9.058,0,0,0,54.9,43.086c1.425-1.049,2.8-2.519,2.712-4.514a8.481,8.481,0,0,0-.616-2.667,13.914,13.914,0,0,1,7.078-.821c6.347.741,7.59,4.708,7.35,6.361a4.215,4.215,0,0,1-2.018,2.85c-.445.274-.581.376-.547.581.057.3.262.285.638.217a4.952,4.952,0,0,0,3.453-4.412c.182-3.876-3.544-8.139-10.145-8.1ZM13.883,49.073c-2.1,2.291-5.037,3.158-6.3,2.428-1.357-.789-.821-4.161,1.766-6.6a33.776,33.776,0,0,1,4.946-3.693c.308-.182.752-.456,1.3-.787.091-.057.137-.08.137-.08.1-.068.217-.125.331-.194a9.1,9.1,0,0,1-2.177,8.926ZM29.2,38.654c-.73,1.79-2.267,6.349-3.2,6.11-.8-.205-1.288-3.682-.16-7.1a15.722,15.722,0,0,1,2.5-4.571c1.15-1.288,2.416-1.7,2.712-1.186C31.445,32.578,29.655,37.537,29.2,38.654ZM41.853,44.7c-.308.16-.593.262-.73.182-.1-.057.125-.274.125-.274s1.585-1.7,2.211-2.474c.365-.456.787-.992,1.241-1.585,0,.057.011.114.011.182-.015,2.04-1.974,3.42-2.864,3.967Zm9.756-2.223c-.228-.16-.194-.7.57-2.36a8.86,8.86,0,0,1,2.166-2.793,4.124,4.124,0,0,1,.217,1.231,4.019,4.019,0,0,1-2.951,3.921Z" transform="translate(36.851 27.014)" fill="#c69"/></g></svg>