<svg xmlns="http://www.w3.org/2000/svg" width="205.666" height="32.64" viewBox="0 0 205.666 32.64"><path d="M20.2-2.856a2.564,2.564,0,0,1,.272,1.088,1.853,1.853,0,0,1-.8,1.615A2.835,2.835,0,0,1,18.02.408a3.311,3.311,0,0,1-1.887-.493,4.128,4.128,0,0,1-1.241-1.36A17.708,17.708,0,0,1,13.77-3.876L12.512-7.14a12.042,12.042,0,0,0-.833-1.768A3.232,3.232,0,0,0,10.557-10,3.756,3.756,0,0,0,8.6-10.438l-1.768-.034V-4.25A10.716,10.716,0,0,0,7.378-.408a3.133,3.133,0,0,1-2.142.85A2.3,2.3,0,0,1,3.655-.085,1.831,1.831,0,0,1,3.06-1.53V-19.176a17.5,17.5,0,0,0-.136-2.057,9.074,9.074,0,0,0-.442-1.989,14.129,14.129,0,0,1,5.746-.884q4.93,0,7.361,1.479a5.2,5.2,0,0,1,2.431,4.811,6.282,6.282,0,0,1-1.428,4.182,7.359,7.359,0,0,1-3.91,2.346,4.054,4.054,0,0,1,1.938,1.071,8.3,8.3,0,0,1,1.394,2.023l1.53,3.57a5.843,5.843,0,0,0,.867,1.615,1.334,1.334,0,0,0,.9.527A1.139,1.139,0,0,0,20.2-2.856ZM6.834-11.9q.578.034,1.938.034A4.95,4.95,0,0,0,12.529-13.5a5.9,5.9,0,0,0,1.377-4.046q0-5.134-5.406-5.134-1.258,0-1.666.034ZM36.516-4.692a.854.854,0,0,1,.544.85,2.679,2.679,0,0,1-.238.986,4.682,4.682,0,0,1-2.3,2.448,8.552,8.552,0,0,1-3.961.85,7.952,7.952,0,0,1-6.1-2.38Q22.236-4.318,22.236-8.7a9.763,9.763,0,0,1,2.176-6.749,7.916,7.916,0,0,1,6.222-2.431,8.077,8.077,0,0,1,4.794,1.309,4.3,4.3,0,0,1,1.836,3.723,4.354,4.354,0,0,1-2.023,3.859A9.816,9.816,0,0,1,29.75-7.65a32.043,32.043,0,0,1-3.5-.17,7.018,7.018,0,0,0,1.6,4.522,5.008,5.008,0,0,0,3.706,1.36A6.24,6.24,0,0,0,34.7-2.686,4.037,4.037,0,0,0,36.516-4.692ZM30.5-16.49A3.514,3.514,0,0,0,27.353-14.6a10.423,10.423,0,0,0-1.139,5.355,15.71,15.71,0,0,0,1.8.1,7,7,0,0,0,3.774-.918,3.659,3.659,0,0,0,1.462-3.366,3.04,3.04,0,0,0-.782-2.363A2.854,2.854,0,0,0,30.5-16.49ZM55.25-1.734q0,9.486-8.466,9.486a10.217,10.217,0,0,1-4.42-.833A2.855,2.855,0,0,1,40.63,4.148a2.211,2.211,0,0,1,.731-1.717,2.7,2.7,0,0,1,1.887-.663,2.084,2.084,0,0,1,1.734.646,1.872,1.872,0,0,0-.7.765,2.067,2.067,0,0,0-.221.9,2.17,2.17,0,0,0,.782,1.768,3.045,3.045,0,0,0,2.006.646,4.007,4.007,0,0,0,3.672-2.04A11.383,11.383,0,0,0,51.748-1.36q0-.646.2-2.618A6.3,6.3,0,0,1,49.844-.816,5.776,5.776,0,0,1,46.24.272a4.738,4.738,0,0,1-3.961-1.615Q41-2.958,41-6.7l-.034-6.29a12.123,12.123,0,0,0-.544-4.08,3.206,3.206,0,0,1,2.142-.816,2.247,2.247,0,0,1,1.547.527,1.831,1.831,0,0,1,.595,1.445v8.67a11.38,11.38,0,0,0,.6,4.3A2.112,2.112,0,0,0,47.4-1.6a3.45,3.45,0,0,0,3.009-1.989,11.833,11.833,0,0,0,1.173-5.9q0-3.91-.1-5.2a8.339,8.339,0,0,0-.544-2.414,3.376,3.376,0,0,1,2.142-.782,2.141,2.141,0,0,1,1.53.578,2.049,2.049,0,0,1,.612,1.564Zm19.516-2.72a11.691,11.691,0,0,0,.612,4.046,3.054,3.054,0,0,1-2.142.85,2.312,2.312,0,0,1-1.564-.527A1.807,1.807,0,0,1,71.06-1.53V-10.4a10.667,10.667,0,0,0-.663-4.165A2.308,2.308,0,0,0,68.1-15.912a2.994,2.994,0,0,0-2.057.85,5.982,5.982,0,0,0-1.513,2.6,14.117,14.117,0,0,0-.578,4.369q0,4.012.1,5.3A8.339,8.339,0,0,0,64.6-.374a3.518,3.518,0,0,1-.9.561,2.882,2.882,0,0,1-1.207.255,2.232,2.232,0,0,1-1.6-.578A2.049,2.049,0,0,1,60.282-1.7V-13.294a3.561,3.561,0,0,0-.238-1.36.7.7,0,0,0-.68-.408.9.9,0,0,0-.884.476,2.276,2.276,0,0,1-.442-1.292,1.826,1.826,0,0,1,.646-1.445,2.66,2.66,0,0,1,1.8-.561,2.724,2.724,0,0,1,2.261,1,4.7,4.7,0,0,1,.8,2.975v.17a6.071,6.071,0,0,1,2.159-3.077,5.951,5.951,0,0,1,3.587-1.071,4.9,4.9,0,0,1,4.131,1.734,8.417,8.417,0,0,1,1.343,5.2ZM95.438-3.026a2.04,2.04,0,0,1,.408,1.258,1.84,1.84,0,0,1-.782,1.5A3.158,3.158,0,0,1,93.058.34,2.941,2.941,0,0,1,90.542-.8a6.4,6.4,0,0,1-.884-3.689A9.071,9.071,0,0,1,86.87-.952,6.565,6.565,0,0,1,82.824.374,4.612,4.612,0,0,1,79.645-.7,3.689,3.689,0,0,1,78.438-3.6,4.449,4.449,0,0,1,80.07-7.14a10.843,10.843,0,0,1,4.182-2.108,17.52,17.52,0,0,1,5.2-.646v-.85a8.914,8.914,0,0,0-.816-4.352,2.9,2.9,0,0,0-2.72-1.394,3.346,3.346,0,0,0-2.091.612,2.369,2.369,0,0,0-.8,2.006,3.521,3.521,0,0,0,.306,1.462,2.033,2.033,0,0,0,1.02,1.02,2.075,2.075,0,0,1-.9.561,3.685,3.685,0,0,1-1.173.187,2.846,2.846,0,0,1-2.193-.9,3.113,3.113,0,0,1-.833-2.193,3.379,3.379,0,0,1,1.836-3.077,10.082,10.082,0,0,1,5.066-1.071q3.672,0,5.389,1.751t1.717,5.593v6.256q0,1.8,1.156,1.8a1.314,1.314,0,0,0,.561-.136A1.066,1.066,0,0,0,95.438-3.026Zm-10.914.918a3.788,3.788,0,0,0,2.295-.9,7.121,7.121,0,0,0,1.955-2.4,6.8,6.8,0,0,0,.782-3.2,11.574,11.574,0,0,0-2.414.119,7.873,7.873,0,0,0-2.108.595,4.5,4.5,0,0,0-1.853,1.377,3.236,3.236,0,0,0-.663,2.023,2.821,2.821,0,0,0,.493,1.7A1.744,1.744,0,0,0,84.524-2.108Zm39.134-.748a2.564,2.564,0,0,1,.272,1.088,1.853,1.853,0,0,1-.8,1.615,2.835,2.835,0,0,1-1.649.561A3.311,3.311,0,0,1,119.6-.085a4.128,4.128,0,0,1-1.241-1.36,17.708,17.708,0,0,1-1.122-2.431L115.974-7.14a12.042,12.042,0,0,0-.833-1.768A3.232,3.232,0,0,0,114.019-10a3.756,3.756,0,0,0-1.955-.442l-1.768-.034V-4.25a10.716,10.716,0,0,0,.544,3.842,3.133,3.133,0,0,1-2.142.85,2.3,2.3,0,0,1-1.581-.527,1.831,1.831,0,0,1-.6-1.445V-19.176a17.505,17.505,0,0,0-.136-2.057,9.074,9.074,0,0,0-.442-1.989,14.129,14.129,0,0,1,5.746-.884q4.93,0,7.361,1.479a5.2,5.2,0,0,1,2.431,4.811,6.282,6.282,0,0,1-1.428,4.182,7.359,7.359,0,0,1-3.91,2.346,4.054,4.054,0,0,1,1.938,1.071,8.3,8.3,0,0,1,1.394,2.023l1.53,3.57a5.843,5.843,0,0,0,.867,1.615,1.334,1.334,0,0,0,.9.527A1.139,1.139,0,0,0,123.658-2.856ZM110.3-11.9q.578.034,1.938.034a4.95,4.95,0,0,0,3.757-1.632,5.9,5.9,0,0,0,1.377-4.046q0-5.134-5.406-5.134-1.258,0-1.666.034Zm32.4,8.874a2.04,2.04,0,0,1,.408,1.258,1.84,1.84,0,0,1-.782,1.5,3.158,3.158,0,0,1-2.006.612A2.941,2.941,0,0,1,137.8-.8a6.4,6.4,0,0,1-.884-3.689A9.071,9.071,0,0,1,134.13-.952,6.565,6.565,0,0,1,130.084.374,4.612,4.612,0,0,1,126.905-.7,3.689,3.689,0,0,1,125.7-3.6,4.449,4.449,0,0,1,127.33-7.14a10.843,10.843,0,0,1,4.182-2.108,17.52,17.52,0,0,1,5.2-.646v-.85A8.914,8.914,0,0,0,135.9-15.1a2.9,2.9,0,0,0-2.72-1.394,3.346,3.346,0,0,0-2.091.612,2.369,2.369,0,0,0-.8,2.006,3.521,3.521,0,0,0,.306,1.462,2.033,2.033,0,0,0,1.02,1.02,2.075,2.075,0,0,1-.9.561,3.685,3.685,0,0,1-1.173.187,2.846,2.846,0,0,1-2.193-.9,3.113,3.113,0,0,1-.833-2.193,3.379,3.379,0,0,1,1.836-3.077,10.082,10.082,0,0,1,5.066-1.071q3.672,0,5.389,1.751t1.717,5.593v6.256q0,1.8,1.156,1.8a1.314,1.314,0,0,0,.561-.136A1.066,1.066,0,0,0,142.7-3.026Zm-10.914.918a3.788,3.788,0,0,0,2.295-.9,7.121,7.121,0,0,0,1.955-2.4,6.8,6.8,0,0,0,.782-3.2,11.574,11.574,0,0,0-2.414.119,7.873,7.873,0,0,0-2.108.595,4.5,4.5,0,0,0-1.853,1.377,3.236,3.236,0,0,0-.663,2.023,2.821,2.821,0,0,0,.493,1.7A1.744,1.744,0,0,0,131.784-2.108Zm29-2.346A11.691,11.691,0,0,0,161.4-.408a3.054,3.054,0,0,1-2.142.85,2.312,2.312,0,0,1-1.564-.527,1.807,1.807,0,0,1-.612-1.445V-10.4a10.667,10.667,0,0,0-.663-4.165,2.308,2.308,0,0,0-2.295-1.343,2.994,2.994,0,0,0-2.057.85,5.982,5.982,0,0,0-1.513,2.6,14.117,14.117,0,0,0-.578,4.369q0,4.012.1,5.3a8.34,8.34,0,0,0,.544,2.414,3.518,3.518,0,0,1-.9.561,2.882,2.882,0,0,1-1.207.255,2.232,2.232,0,0,1-1.6-.578A2.049,2.049,0,0,1,146.3-1.7V-13.294a3.561,3.561,0,0,0-.238-1.36.7.7,0,0,0-.68-.408.9.9,0,0,0-.884.476,2.276,2.276,0,0,1-.442-1.292,1.826,1.826,0,0,1,.646-1.445,2.66,2.66,0,0,1,1.8-.561,2.724,2.724,0,0,1,2.261,1,4.7,4.7,0,0,1,.8,2.975v.17a6.071,6.071,0,0,1,2.159-3.077,5.951,5.951,0,0,1,3.587-1.071,4.9,4.9,0,0,1,4.131,1.734,8.417,8.417,0,0,1,1.343,5.2Zm9.962,12.206a8.861,8.861,0,0,1-4.42-.986,3.224,3.224,0,0,1-1.734-2.992,2.609,2.609,0,0,1,.748-1.955,2.655,2.655,0,0,1,1.938-.731,2.084,2.084,0,0,1,1.734.646,2.658,2.658,0,0,0-.986,2.21,2.4,2.4,0,0,0,.748,1.87,2.97,2.97,0,0,0,2.074.68,4.091,4.091,0,0,0,3.723-2.006,10.824,10.824,0,0,0,1.241-5.678V-3.638a5.123,5.123,0,0,1-1.955,2.72,5.8,5.8,0,0,1-3.383.952,5.291,5.291,0,0,1-4.437-2.04q-1.581-2.04-1.581-6.426a11.515,11.515,0,0,1,1.87-6.817q1.87-2.635,6.188-2.635a13.114,13.114,0,0,1,3.927.578,7.936,7.936,0,0,1,3.043,1.666V-1.53Q179.486,7.752,170.748,7.752Zm.816-9.554a3.38,3.38,0,0,0,3.145-1.853,9.963,9.963,0,0,0,1.071-4.777l.034-7.072a3.383,3.383,0,0,0-1.36-.731,6.239,6.239,0,0,0-1.8-.255A3.322,3.322,0,0,0,169.3-14.3a16.9,16.9,0,0,0-.9,6.2,11.543,11.543,0,0,0,.731,4.862A2.522,2.522,0,0,0,171.564-1.8Zm25.6-2.89a.854.854,0,0,1,.544.85,2.679,2.679,0,0,1-.238.986,4.682,4.682,0,0,1-2.295,2.448,8.552,8.552,0,0,1-3.961.85,7.952,7.952,0,0,1-6.1-2.38q-2.227-2.38-2.227-6.766a9.763,9.763,0,0,1,2.176-6.749,7.916,7.916,0,0,1,6.222-2.431,8.077,8.077,0,0,1,4.794,1.309,4.3,4.3,0,0,1,1.836,3.723,4.354,4.354,0,0,1-2.023,3.859A9.816,9.816,0,0,1,190.4-7.65a32.043,32.043,0,0,1-3.5-.17A7.018,7.018,0,0,0,188.5-3.3a5.008,5.008,0,0,0,3.706,1.36,6.24,6.24,0,0,0,3.145-.748A4.037,4.037,0,0,0,197.166-4.692Zm-6.018-11.8A3.514,3.514,0,0,0,188-14.6a10.423,10.423,0,0,0-1.139,5.355,15.71,15.71,0,0,0,1.8.1,7,7,0,0,0,3.774-.918A3.659,3.659,0,0,0,193.9-13.43a3.04,3.04,0,0,0-.782-2.363A2.854,2.854,0,0,0,191.148-16.49ZM205.394.34A3.437,3.437,0,0,1,202.623-.8a4.758,4.758,0,0,1-.969-3.179V-22.916a1.831,1.831,0,0,1,.6-1.445,2.247,2.247,0,0,1,1.547-.527,2.862,2.862,0,0,1,2.108.85,13.46,13.46,0,0,0-.442,2.635q-.1,1.411-.1,4V-4.284q0,1.8,1.224,1.8a1.693,1.693,0,0,0,.663-.136.862.862,0,0,0,.459-.408,1.937,1.937,0,0,1,.442,1.258,1.8,1.8,0,0,1-.816,1.513A3.2,3.2,0,0,1,205.394.34Z" transform="translate(-2.482 24.888)" fill="#233c4b"/></svg>