<svg xmlns="http://www.w3.org/2000/svg" width="111" height="111" viewBox="0 0 111 111"><g transform="translate(-284 -974)"><path d="M55.5,0A55.5,55.5,0,1,1,0,55.5,55.5,55.5,0,0,1,55.5,0Z" transform="translate(284 974)" fill="#acc4d4" opacity="0.1"/><g transform="translate(273.607 974.429)"><rect width="37" height="48" transform="translate(47.415 27)" fill="#fff"/><path d="M0,2.25,4.862,57.388,26.747,64.66l21.885-7.272L53.494,2.25ZM43.617,13.395l-.669,6.589L26.886,26.852l-.042.014H42.377L40.594,47.288l-13.68,4L13.151,47.219l-.892-10.295h6.812l.446,5.335,7.328,1.853,7.62-2.145.515-8.581-23.167-.07V33.3l-.028.014-.5-6.45L26.9,20.36l.906-.376H10.685l-.808-6.589Z" transform="translate(39.146 21.493)" fill="#3799d6"/></g></g></svg>