<svg xmlns="http://www.w3.org/2000/svg" width="111" height="111" viewBox="0 0 111 111"><g transform="translate(92.633)"><path d="M55.5,0A55.5,55.5,0,1,1,0,55.5,55.5,55.5,0,0,1,55.5,0Z" transform="translate(-92.633)" fill="#acc4d4" opacity="0.1"/><path d="M58.255,22.476Q57.127,22.1,56,21.765c.125-.515.237-1.031.348-1.546,1.713-8.3.585-14.975-3.218-17.176-3.664-2.1-9.64.084-15.685,5.349-.6.515-1.184,1.059-1.741,1.6-.376-.362-.766-.724-1.156-1.073-6.338-5.628-12.69-8-16.493-5.781-3.65,2.117-4.736,8.4-3.2,16.256.153.78.32,1.546.515,2.326-.892.251-1.769.529-2.591.822C5.335,25.122,0,29.19,0,33.4,0,37.743,5.683,42.1,13.415,44.75c.627.209,1.254.418,1.894.6-.209.836-.39,1.658-.557,2.507-1.463,7.731-.32,13.86,3.329,15.964,3.761,2.173,10.085-.056,16.242-5.447.488-.432.975-.878,1.463-1.351.613.6,1.254,1.17,1.894,1.727,5.962,5.126,11.854,7.2,15.49,5.1,3.761-2.173,4.987-8.762,3.4-16.786q-.188-.919-.418-1.881c.446-.125.878-.265,1.309-.4,8.038-2.661,13.86-6.965,13.86-11.381,0-4.221-5.488-8.316-13.066-10.921ZM39.408,10.649C44.59,6.136,49.424,4.367,51.625,5.634c2.354,1.351,3.26,6.812,1.783,13.986-.1.474-.2.933-.32,1.393a71.311,71.311,0,0,0-9.375-1.477,70.38,70.38,0,0,0-5.934-7.4C38.322,11.624,38.851,11.136,39.408,10.649ZM23.291,40.626c.71,1.212,1.435,2.424,2.2,3.608a63.077,63.077,0,0,1-6.464-1.045,65.072,65.072,0,0,1,2.271-6.2c.641,1.226,1.3,2.438,1.992,3.636ZM19.07,23.869c2.006-.446,4.137-.808,6.352-1.087-.738,1.156-1.463,2.34-2.145,3.538s-1.351,2.4-1.978,3.622c-.878-2.076-1.616-4.109-2.229-6.073Zm3.817,9.6c.919-1.922,1.922-3.8,2.981-5.656s2.2-3.65,3.4-5.419c2.09-.153,4.221-.237,6.394-.237s4.318.084,6.394.237q1.776,2.633,3.385,5.391t3.023,5.628q-1.4,2.884-3.009,5.683c-1.059,1.853-2.187,3.65-3.371,5.433-2.076.153-4.235.223-6.422.223s-4.3-.07-6.352-.2q-1.818-2.654-3.427-5.433c-1.073-1.853-2.062-3.733-2.995-5.656ZM48.045,40.6c.71-1.226,1.379-2.466,2.034-3.719a64.665,64.665,0,0,1,2.354,6.171,61.186,61.186,0,0,1-6.547,1.114C46.638,42.994,47.348,41.8,48.045,40.6Zm2.006-10.656c-.655-1.226-1.323-2.452-2.02-3.65s-1.393-2.354-2.131-3.51A64.1,64.1,0,0,1,52.293,23.9,61.649,61.649,0,0,1,50.051,29.942ZM35.689,14.271a61.169,61.169,0,0,1,4.123,4.987c-2.758-.125-5.53-.125-8.288,0C32.889,17.461,34.3,15.789,35.689,14.271ZM19.53,5.732c2.34-1.365,7.536.585,13.011,5.433.348.306.7.641,1.059.975a70.772,70.772,0,0,0-5.976,7.4,73.429,73.429,0,0,0-9.361,1.449c-.181-.71-.334-1.435-.488-2.159C16.465,12.084,17.329,7,19.53,5.732Zm-3.413,36.72c-.585-.167-1.156-.348-1.727-.543a28.411,28.411,0,0,1-8.776-4.346A6.251,6.251,0,0,1,2.995,33.4c0-2.549,4.4-5.809,10.754-8.024.794-.279,1.6-.529,2.41-.766a74.072,74.072,0,0,0,3.413,8.86,76.145,76.145,0,0,0-3.455,8.985ZM32.359,56.1A25.5,25.5,0,0,1,24.5,61.02a6.166,6.166,0,0,1-4.917.181c-2.215-1.282-3.134-6.2-1.881-12.816.153-.78.32-1.56.515-2.326a69.689,69.689,0,0,0,9.458,1.365A73.513,73.513,0,0,0,33.7,54.863C33.251,55.295,32.805,55.713,32.359,56.1Zm3.413-3.385c-1.421-1.532-2.842-3.232-4.221-5.057,1.337.056,2.716.084,4.109.084,1.435,0,2.842-.028,4.235-.1a60.073,60.073,0,0,1-4.123,5.071ZM53.979,56.9a6.191,6.191,0,0,1-2.3,4.36c-2.215,1.282-6.937-.39-12.036-4.764-.585-.5-1.17-1.045-1.769-1.6a68.91,68.91,0,0,0,5.878-7.467,68.67,68.67,0,0,0,9.5-1.463c.139.571.265,1.142.376,1.7A25.394,25.394,0,0,1,53.979,56.9Zm2.535-14.975c-.39.125-.78.251-1.184.362A70.762,70.762,0,0,0,51.778,33.4a70.411,70.411,0,0,0,3.413-8.762c.724.209,1.421.432,2.09.655,6.491,2.229,11.047,5.544,11.047,8.079,0,2.73-4.862,6.255-11.813,8.553Zm-20.853-2.09a6.38,6.38,0,1,0-6.38-6.38A6.379,6.379,0,0,0,35.661,39.832Z" transform="translate(-72.794 22.044)" fill="#61dbfb"/></g></svg>