<svg xmlns="http://www.w3.org/2000/svg" width="111" height="111" viewBox="0 0 111 111"><g transform="translate(116 -67)"><path d="M55.5,0A55.5,55.5,0,1,1,0,55.5,55.5,55.5,0,0,1,55.5,0Z" transform="translate(-116 67)" fill="#acc4d4" opacity="0.1"/><rect width="37" height="48" transform="translate(-79 96)" fill="#fff"/><path d="M0,2.25,4.862,57.388,26.677,64.66l21.955-7.272L53.494,2.25ZM42.935,20.067H17.33l.571,6.882H42.363L40.469,47.622,26.831,51.384v.042h-.153l-13.75-3.8-.836-10.56h6.645l.488,5.308,7.453,2.02,7.481-2.02.836-8.665H11.744L9.96,13.422H43.548l-.613,6.645Z" transform="translate(-87.317 89.185)" fill="#e34f26"/></g></svg>