<svg xmlns="http://www.w3.org/2000/svg" width="111" height="111" viewBox="0 0 111 111"><g transform="translate(-437 -974)"><path d="M55.5,0A55.5,55.5,0,1,1,0,55.5,55.5,55.5,0,0,1,55.5,0Z" transform="translate(437 974)" fill="#acc4d4" opacity="0.1"/><g transform="translate(426.961 974.552)"><rect width="45" height="34" transform="translate(47.952 49)" fill="#fff"/><path d="M0,0H62.41V62.41H0ZM57.3,47.525c-.455-2.847-2.309-5.24-7.809-7.471-1.914-.9-4.041-1.521-4.673-2.964a3.071,3.071,0,0,1-.12-1.833c.39-1.68,2.379-2.184,3.94-1.716a4.23,4.23,0,0,1,2.538,2.34c2.689-1.758,2.689-1.758,4.564-2.925a10.733,10.733,0,0,0-1.524-2.028c-1.638-1.833-3.82-2.769-7.37-2.689l-1.833.231a8.382,8.382,0,0,0-4.447,2.613,8.158,8.158,0,0,0,1.48,11.626c3.55,2.652,8.74,3.235,9.4,5.734.624,3.042-2.262,4.018-5.112,3.667-2.109-.468-3.277-1.524-4.564-3.474l-4.759,2.733a10.516,10.516,0,0,0,2.106,2.884c4.525,4.566,15.836,4.332,17.867-2.611a8.8,8.8,0,0,0,.192-4.291l.12.174ZM33.938,28.685H28.092c0,5.04-.023,10.048-.023,15.1,0,3.2.164,6.145-.359,7.05-.858,1.792-3.068,1.563-4.072,1.248a5.017,5.017,0,0,1-2.158-2.223,2.231,2.231,0,0,0-.33-.51L16.4,52.271a9.2,9.2,0,0,0,3.443,3.945,11.444,11.444,0,0,0,8.34,1.053A7.3,7.3,0,0,0,32.9,53.6c1.326-2.418,1.045-5.383,1.032-8.7.031-5.341,0-10.685,0-16.068l.01-.146Z" transform="translate(34.334 23.743)" fill="#f7df1e"/></g></g></svg>