<svg xmlns="http://www.w3.org/2000/svg" width="320.65" height="320.65" viewBox="0 0 320.65 320.65"><g transform="translate(-427.051 -946.077)" opacity="0.3"><g transform="translate(587.376 946.077) rotate(45)" fill="rgba(255,255,255,0)"><path d="M 1.53456711769104 225.1992645263672 L 6.409207344055176 6.409207344055176 L 225.1992645263672 1.53456711769104 L 220.3246154785156 220.3246154785156 L 1.53456711769104 225.1992645263672 Z" stroke="none"/><path d="M 223.6646881103516 3.069107055664063 L 7.876861572265625 7.876861572265625 L 3.069107055664063 223.6646881103516 L 218.85693359375 218.85693359375 L 223.6646881103516 3.069107055664063 M 226.7338104248047 -1.52587890625e-05 L 221.7922668457031 221.7922668457031 L -1.52587890625e-05 226.7338104248047 L 4.9415283203125 4.9415283203125 L 226.7338104248047 -1.52587890625e-05 Z" stroke="none" fill="#8dbff8"/></g><g transform="translate(587.376 958.974) rotate(45)" fill="rgba(255,255,255,0)"><path d="M 206.9257507324219 206.9257049560547 L 10.00699806213379 198.4872894287109 L 1.568575739860535 1.568588018417358 L 198.4873199462891 10.00698375701904 L 206.9257507324219 206.9257049560547 Z" stroke="none"/><path d="M 3.137161254882813 3.137176513671875 L 11.4466552734375 197.0475921630859 L 205.3571319580078 205.3571166992188 L 197.0476379394531 11.44664001464844 L 3.137161254882813 3.137176513671875 M -1.52587890625e-05 0 L 199.9269866943359 8.567291259765625 L 208.4943084716797 208.4942932128906 L 8.567306518554688 199.9269409179688 L -1.52587890625e-05 0 Z" stroke="none" fill="#8dbff8"/></g><g transform="translate(587.376 990.44) rotate(45)" fill="rgba(255,255,255,0)"><path d="M 162.4328918457031 162.4327545166016 L 7.515287399291992 156.4785614013672 L 1.561107516288757 1.561103940010071 L 156.4786987304688 7.515284061431885 L 162.4328918457031 162.4327545166016 Z" stroke="none"/><path d="M 3.122222900390625 3.122222900390625 L 8.960861206054688 155.0329895019531 L 160.8717803955078 160.8716430664063 L 155.0331268310547 8.960830688476563 L 3.122222900390625 3.122222900390625 M 0 0 L 157.9242248535156 6.069732666015625 L 163.9940032958984 163.9938659667969 L 6.069747924804688 157.9240875244141 L 0 0 Z" stroke="none" fill="#8dbff8"/></g><g transform="translate(587.376 1014.993) rotate(45)" fill="rgba(255,255,255,0)"><path d="M 127.6807098388672 127.6807098388672 L 8.209249496459961 121.061882019043 L 1.590420007705688 1.590420007705688 L 121.061882019043 8.209249496459961 L 127.6807098388672 127.6807098388672 Z" stroke="none"/><path d="M 3.180816650390625 3.180816650390625 L 9.632659912109375 119.6384506225586 L 126.0903167724609 126.0903167724609 L 119.6384506225586 9.632659912109375 L 3.180816650390625 3.180816650390625 M 0 0 L 122.4853286743164 6.785789489746094 L 129.2711334228516 129.2711334228516 L 6.785789489746094 122.4853286743164 L 0 0 Z" stroke="none" fill="#8dbff8"/></g><g transform="translate(588.41 1049.854) rotate(45)" fill="rgba(255,255,255,0)"><path d="M 76.94055938720703 79.85785675048828 L 4.650750637054443 76.46620178222656 L 1.566148400306702 1.575132369995117 L 73.85596466064453 4.966799259185791 L 76.94055938720703 79.85785675048828 Z" stroke="none"/><path d="M 3.132286071777344 3.150260925292969 L 6.092948913574219 75.03221130371094 L 75.37441253662109 78.28273010253906 L 72.41375732421875 6.400779724121094 L 3.132286071777344 3.150260925292969 M -7.62939453125e-06 0 L 75.29816436767578 3.532798767089844 L 78.50669860839844 81.43299102783203 L 3.208541870117188 77.90019226074219 L -7.62939453125e-06 0 Z" stroke="none" fill="#8dbff8"/></g><g transform="translate(587.967 1074.064) rotate(45)" fill="rgba(255,255,255,0)"><path d="M 43.3291130065918 44.99358749389648 L 3.277061700820923 43.11443328857422 L 1.566150426864624 1.575133323669434 L 41.61820983886719 3.454278469085693 L 43.3291130065918 44.99358749389648 Z" stroke="none"/><path d="M 3.132297515869141 3.150253295898438 L 4.719272613525391 41.68045043945313 L 41.76296615600586 43.41844940185547 L 40.17599105834961 4.888252258300781 L 3.132297515869141 3.150253295898438 M 0 -3.814697265625e-06 L 43.0604133605957 2.020286560058594 L 44.895263671875 46.56870651245117 L 1.834850311279297 44.54841613769531 L 0 -3.814697265625e-06 Z" stroke="none" fill="#8dbff8"/></g><g transform="translate(587.376 1089.062) rotate(45)" fill="rgba(255,255,255,0)"><path d="M 22.84768676757813 22.84768676757813 L 3.586291313171387 20.93496513366699 L 1.673568844795227 1.673568844795227 L 20.93496513366699 3.586291313171387 L 22.84768676757813 22.84768676757813 Z" stroke="none"/><path d="M 3.347139358520508 3.347139358520508 L 4.957504272460938 19.56375122070313 L 21.17411613464355 21.17411613464355 L 19.56375122070313 4.957504272460938 L 3.347139358520508 3.347139358520508 M -1.9073486328125e-06 -1.9073486328125e-06 L 22.30617713928223 2.215078353881836 L 24.5212574005127 24.5212574005127 L 2.215078353881836 22.30617713928223 L -1.9073486328125e-06 -1.9073486328125e-06 Z" stroke="none" fill="#8dbff8"/></g></g></svg>