<svg xmlns="http://www.w3.org/2000/svg" width="141.915" height="141.915" viewBox="0 0 141.915 141.915"><g transform="translate(437.964 -1041.905) rotate(45)" opacity="0.3"><g transform="translate(527.4 946.077) rotate(45)" fill="rgba(255,255,255,0)"><path d="M 1.534559965133667 140.3808898925781 L 4.560630798339844 4.560630798339844 L 140.3808898925781 1.534559965133667 L 137.3548431396484 137.3548431396484 L 1.534559965133667 140.3808898925781 Z" stroke="none"/><path d="M 138.8463134765625 3.069137573242188 L 6.0283203125 6.0283203125 L 3.069137573242188 138.8463134765625 L 135.8871307373047 135.8871307373047 L 138.8463134765625 3.069137573242188 M 141.9154510498047 0 L 138.8224792480469 138.8224792480469 L 0 141.9154510498047 L 3.092971801757813 3.092971801757813 L 141.9154510498047 0 Z" stroke="none" fill="#8dbff8"/></g><g transform="translate(527.4 954.149) rotate(45)" fill="rgba(255,255,255,0)"><path d="M 128.9305725097656 128.9305419921875 L 6.802067756652832 123.6970520019531 L 1.568596601486206 1.568588972091675 L 123.6970748901367 6.802060127258301 L 128.9305725097656 128.9305419921875 Z" stroke="none"/><path d="M 3.137168884277344 3.137184143066406 L 8.241752624511719 122.2573699951172 L 127.3619766235352 127.361946105957 L 122.2573928833008 8.241744995117188 L 3.137168884277344 3.137184143066406 M 0 0 L 125.1367492675781 5.362388610839844 L 130.4991455078125 130.4991302490234 L 5.362396240234375 125.1367263793945 L 0 0 Z" stroke="none" fill="#8dbff8"/></g><g transform="translate(527.4 973.844) rotate(45)" fill="rgba(255,255,255,0)"><path d="M 101.0847396850586 101.0846557617188 L 5.244680881500244 97.40106964111328 L 1.56111216545105 1.561112999916077 L 97.40115356445313 5.244681358337402 L 101.0847396850586 101.0846557617188 Z" stroke="none"/><path d="M 3.122215270996094 3.122207641601563 L 6.690223693847656 95.95552825927734 L 99.52363586425781 99.52354431152344 L 95.95561218261719 6.690208435058594 L 3.122215270996094 3.122207641601563 M 0 -7.62939453125e-06 L 98.84671020507813 3.799118041992188 L 102.6458511352539 102.6457595825195 L 3.799125671386719 98.84661865234375 L 0 -7.62939453125e-06 Z" stroke="none" fill="#8dbff8"/></g><g transform="translate(527.4 989.212) rotate(45)" fill="rgba(255,255,255,0)"><path d="M 79.32196807861328 79.32196807861328 L 5.670763969421387 75.24163055419922 L 1.59041702747345 1.59041702747345 L 75.24163055419922 5.670763969421387 L 79.32196807861328 79.32196807861328 Z" stroke="none"/><path d="M 3.180816650390625 3.180816650390625 L 7.094200134277344 73.81818389892578 L 77.73155212402344 77.73155212402344 L 73.81818389892578 7.094200134277344 L 3.180816650390625 3.180816650390625 M -7.62939453125e-06 -7.62939453125e-06 L 76.66506958007813 4.247314453125 L 80.91237640380859 80.91237640380859 L 4.247314453125 76.66506958007813 L -7.62939453125e-06 -7.62939453125e-06 Z" stroke="none" fill="#8dbff8"/></g><g transform="translate(528.048 1011.032) rotate(45)" fill="rgba(255,255,255,0)"><path d="M 47.5721549987793 49.39477157592773 L 3.450472831726074 47.32468795776367 L 1.56615138053894 1.575129270553589 L 45.68783187866211 3.645214319229126 L 47.5721549987793 49.39477157592773 Z" stroke="none"/><path d="M 3.132301330566406 3.150257110595703 L 4.892681121826172 45.89070510864258 L 46.00600433349609 47.81964492797852 L 44.24562454223633 5.079196929931641 L 3.132301330566406 3.150257110595703 M 3.814697265625e-06 0 L 47.13004302978516 2.211231231689453 L 49.13830184936523 50.96990203857422 L 2.008262634277344 48.75867080688477 L 3.814697265625e-06 0 Z" stroke="none" fill="#8dbff8"/></g><g transform="translate(527.77 1026.186) rotate(45)" fill="rgba(255,255,255,0)"><path d="M 26.53434944152832 27.57279396057129 L 2.590666770935059 26.44941902160645 L 1.566146016120911 1.575130105018616 L 25.50983619689941 2.698505640029907 L 26.53434944152832 27.57279396057129 Z" stroke="none"/><path d="M 3.132295608520508 3.150259017944336 L 4.032876968383789 25.01543426513672 L 24.96819877624512 25.99766540527344 L 24.06761741638184 4.132490158081055 L 3.132295608520508 3.150259017944336 M -1.9073486328125e-06 1.9073486328125e-06 L 26.9520378112793 1.264522552490234 L 28.10049629211426 29.14792251586914 L 1.148456573486328 27.88340187072754 L -1.9073486328125e-06 1.9073486328125e-06 Z" stroke="none" fill="#8dbff8"/></g><g transform="translate(527.4 1035.573) rotate(45)" fill="rgba(255,255,255,0)"><path d="M 13.67458534240723 13.67458534240723 L 2.757660150527954 12.59049415588379 L 1.673568725585938 1.673568725585938 L 12.59049415588379 2.757660150527954 L 13.67458534240723 13.67458534240723 Z" stroke="none"/><path d="M 3.347139358520508 3.347139358520508 L 4.128872871398926 11.21928215026855 L 12.00101470947266 12.00101470947266 L 11.21928215026855 4.128872871398926 L 3.347139358520508 3.347139358520508 M -2.86102294921875e-06 -2.86102294921875e-06 L 13.96170711517334 1.386446952819824 L 15.34815692901611 15.34815692901611 L 1.386446952819824 13.96170711517334 L -2.86102294921875e-06 -2.86102294921875e-06 Z" stroke="none" fill="#8dbff8"/></g></g></svg>